# xmcd CD database file
#
# Track frame offsets:
#	150
#	14255
#	27917
#	45639
#	57393
#	76443
#	87691
#	98261
#	110556
#	123658
#	129080
#	141295
#	151952
#	164328
#	184656
#
# Disc length: 2610 seconds
#
# Revision: 0
# Processed by: cddbd v1.5.1PL2 Copyright (c) Steve Scherf et al.
# Submitted via: CDex 1.51
#
DISCID=c00a300f
DTITLE=Sir Douglas Quintet - 1 and 1 and 1 =4
DYEAR=1900
DGENRE=Country
TTITLE0=Yesterday Got In The Way
TTITLE1=In The Dark
TTITLE2=Don't Bug Me!
TTITLE3=Be Real
TTITLE4=Pretty Flower
TTITLE5=What About Tomorrow
TTITLE6=Catch The Man On The Rise
TTITLE7=Tortilla Flats
TTITLE8=A Nice Song
TTITLE9=Monterey Song
TTITLE10=Sixty Minutes Of Your Love
TTITLE11=I Wanna' Be Your Mama Again
TTITLE12=I Don't Want To Go Home
TTITLE13=Leaving Kansas City
TTITLE14=Colinda
EXTD=
EXTT0=
EXTT1=
EXTT2=
EXTT3=
EXTT4=
EXTT5=
EXTT6=
EXTT7=
EXTT8=
EXTT9=
EXTT10=
EXTT11=
EXTT12=
EXTT13=
EXTT14=
PLAYORDER=
